PathFileType	4	(X/Y/Z)	s03c0101.trc
DataRate	CameraRate	NumFrames	NumMarkers	Units	OrigDataRate	OrigDataStartFrame	OrigNumFrames
200	200	4	52	mm	200	250	2000
Frame#	Time	racr			lacr			c7			jug			rlel			rdr			llel			ldr			s2			lic			ric			lasi			rasi			rpsi			lpsi			rgt			lgt			rth1			rth2			rth3			rth4			rlfc			rmfc			rsh1			rsh2			rsh3			rsh4			rlmal			rmmal			rcal			rtoe			rmt5			rmt1			lth1			lth2			lth4			lth3			llfc			lmfc			lsh1			lsh2			lsh3			lsh4			llmal			lmmal			lcal			ltoe			lmt1			lmt5			SBIKE			LBIKE			RBIKE			
		X1	Y1	Z1	X2	Y2	Z2	X3	Y3	Z3	X4	Y4	Z4	X5	Y5	Z5	X6	Y6	Z6	X7	Y7	Z7	X8	Y8	Z8	X9	Y9	Z9	X10	Y10	Z10	X11	Y11	Z11	X12	Y12	Z12	X13	Y13	Z13	X14	Y14	Z14	X15	Y15	Z15	X16	Y16	Z16	X17	Y17	Z17	X18	Y18	Z18	X19	Y19	Z19	X20	Y20	Z20	X21	Y21	Z21	X22	Y22	Z22	X23	Y23	Z23	X24	Y24	Z24	X25	Y25	Z25	X26	Y26	Z26	X27	Y27	Z27	X28	Y28	Z28	X29	Y29	Z29	X30	Y30	Z30	X31	Y31	Z31	X32	Y32	Z32	X33	Y33	Z33	X34	Y34	Z34	X35	Y35	Z35	X36	Y36	Z36	X37	Y37	Z37	X38	Y38	Z38	X39	Y39	Z39	X40	Y40	Z40	X41	Y41	Z41	X42	Y42	Z42	X43	Y43	Z43	X44	Y44	Z44	X45	Y45	Z45	X46	Y46	Z46	X47	Y47	Z47	X48	Y48	Z48	X49	Y49	Z49	X50	Y50	Z50	X51	Y51	Z51	X52	Y52	Z52	
250	1.2500	487.567875	1391.373349	-78.626300	484.031689	1408.726639	-409.824431	428.563187	1492.028578	-238.022404	468.472965	1324.443837	-240.246567	522.273153	1130.263462	17.129725	743.709744	945.670856	-38.705891	534.278934	1148.775008	-498.637497	746.277295	936.633944	-432.811860	-82.091608	1207.211610	-247.656043	104.554273	1212.124163	-429.392191	92.989251	1229.027070	-61.118140	112.099702	1130.619119	-391.774815	103.820414	1164.685045	-106.207148	-54.558914	1257.118910	-203.295227	-45.189377	1252.423691	-286.358233	30.156183	1159.646473	-43.842522	34.868839	1100.235598	-441.139960	148.772104	1076.132938	-17.025961	237.432920	1070.965357	-11.577824	311.222937	1025.956349	-8.827232	248.928265	1103.471162	-26.259139	432.758373	962.823894	-24.489408	445.087427	951.073801	-152.265775	358.741137	814.963984	-14.016596	332.549157	732.854962	-35.930710	266.654228	673.784087	-43.442169	358.382514	722.128185	-62.864557	192.075850	565.287740	-72.914698	217.137332	581.246124	-160.447225	123.646104	521.496731	-118.013226	433.076132	511.921170	-112.280159	312.515817	496.498915	-45.179791	340.444300	512.451840	-159.275511	102.786872	954.868697	-463.408442	161.810334	891.115617	-465.567338	194.170021	908.645055	-461.583732	182.440997	804.965090	-454.111379	256.658804	697.055385	-437.065246	262.533323	688.713299	-314.678544	173.773324	543.356128	-454.499863	164.816253	459.906718	-433.477057	111.677365	387.588297	-425.420382	194.554743	451.495570	-409.354242	56.024539	275.106976	-401.106063	93.420566	284.556001	-312.932145	-14.307436	239.203127	-349.705371	290.364114	181.586915	-358.660845	198.482602	192.826047	-312.844225	165.719971	176.007870	-426.740312	-212.199094	945.700500	-230.810701	-7.388773	80.946289	-431.611347	-6.925322	80.792215	-31.292997	
251	1.2550	487.539895	1391.334206	-78.604182	484.024941	1408.733051	-409.815743	428.539629	1492.001016	-238.018941	468.474090	1324.412952	-240.246791	522.257424	1130.234469	17.137795	743.712531	945.656237	-38.701820	534.293565	1148.778232	-498.663610	746.262326	936.650289	-432.813509	-82.129551	1207.193256	-247.694744	104.585632	1212.092702	-429.420626	92.944355	1229.010209	-61.136623	112.098711	1130.590568	-391.773006	103.795267	1164.716380	-106.179241	-54.583204	1257.097664	-203.345259	-45.210122	1252.411952	-286.393890	30.120546	1159.652891	-43.849514	34.870719	1100.210585	-441.154992	148.720760	1076.143471	-17.021269	237.379144	1070.975154	-11.573627	311.177534	1025.989361	-8.787142	248.860013	1103.510473	-26.225749	432.696296	962.873439	-24.392819	445.059545	951.131721	-152.192127	358.726450	814.989950	-13.972002	332.537991	732.870441	-35.909168	266.633511	673.819529	-43.387246	358.371418	722.163276	-62.824019	192.072721	565.315529	-72.887649	217.116514	581.298106	-160.425305	123.629185	521.543318	-118.010991	433.055076	511.915671	-112.289116	312.472596	496.503379	-45.162272	340.440571	512.462684	-159.270045	102.782254	954.844713	-463.383405	161.814511	891.071869	-465.532446	194.165526	908.620431	-461.570808	182.453547	804.936540	-454.084710	256.654760	697.014024	-437.054308	262.503869	688.678130	-314.639165	173.774415	543.334678	-454.503438	165.093031	460.572441	-434.811968	111.693498	387.565199	-425.407645	195.669474	453.566668	-412.978594	56.018706	275.088765	-401.100926	93.425787	284.525300	-312.936273	-14.309592	239.158220	-349.697203	290.367463	181.608384	-358.658749	198.504384	192.784968	-312.821921	165.747903	175.997359	-426.737981	-212.210192	945.692219	-230.808056	-7.377146	80.929423	-431.606883	-6.931167	80.802090	-31.288613	
252	1.2600	487.532988	1391.310075	-78.598898	484.023683	1408.735559	-409.773937	428.538167	1491.970204	-238.009359	468.475193	1324.396798	-240.252283	522.237932	1130.215688	17.123715	743.705008	945.643593	-38.703224	534.273518	1148.790501	-498.721090	746.306839	936.685690	-432.854628	-82.154442	1207.167451	-247.717650	104.588841	1212.030402	-429.426544	92.910636	1229.035132	-61.166768	112.115268	1130.561210	-391.748386	103.744300	1164.692232	-106.225627	-54.602082	1257.065689	-203.426565	-45.217737	1252.379671	-286.450616	30.067750	1159.663401	-43.880768	34.873937	1100.173172	-441.162926	148.654362	1076.162411	-17.002155	237.336768	1071.002599	-11.543572	311.139826	1026.036803	-8.743733	248.813795	1103.550704	-26.183321	432.660449	962.902230	-24.312896	445.056116	951.170199	-152.114568	358.699288	815.009366	-13.905356	332.534937	732.898288	-35.857877	266.630711	673.842403	-43.356273	358.371634	722.198420	-62.784579	192.058258	565.347231	-72.867802	217.112076	581.320813	-160.408536	123.630155	521.590070	-118.002886	433.038223	511.909104	-112.277567	312.481238	496.512180	-45.177040	340.421150	512.466321	-159.265131	102.807795	954.797686	-463.362804	161.816079	891.045709	-465.512827	194.169228	908.575629	-461.529982	182.459332	804.905915	-454.082710	256.651572	696.931476	-437.058120	262.476054	688.646924	-314.625012	173.776047	543.306733	-454.477519	164.840053	459.870671	-433.469642	111.699128	387.527118	-425.402872	194.543148	451.443215	-409.327826	56.022831	275.038762	-401.090646	93.406782	284.513924	-312.927025	-14.309662	239.121853	-349.701968	290.394309	181.604188	-358.662803	198.504398	192.784876	-312.821981	165.750560	175.986734	-426.740707	-212.210037	945.686312	-230.806259	-7.388815	80.938123	-431.587999	-6.913568	80.794971	-31.298988	
253	1.2650	487.512611	1391.292351	-78.585705	484.033073	1408.748047	-409.768905	428.515073	1491.949129	-237.987026	468.476103	1324.356313	-240.246452	522.236703	1130.186662	17.110945	743.697565	945.641947	-38.702884	534.269561	1148.803222	-498.750505	746.302854	936.681938	-432.850257	-82.166081	1207.151080	-247.768838	104.577145	1211.971750	-429.385033	92.867412	1229.027438	-61.183658	112.140226	1130.539133	-391.762451	103.717543	1164.743713	-106.197135	-54.638818	1257.064402	-203.451960	-45.237970	1252.379880	-286.471839	30.034313	1159.666086	-43.913787	34.883277	1100.144578	-441.183439	148.606051	1076.183338	-17.011486	237.276211	1071.047637	-11.511407	311.093380	1026.076090	-8.713356	248.761776	1103.575797	-26.157742	432.630142	962.968684	-24.240662	445.035515	951.225340	-152.045215	358.661210	815.059663	-13.847111	332.521544	732.918038	-35.811997	266.609605	673.858316	-43.333891	358.447185	722.338334	-62.650120	192.055561	565.366976	-72.855439	217.107811	581.347539	-160.409501	123.624851	521.639450	-117.994295	433.043786	511.910324	-112.285857	312.480155	496.518781	-45.151159	340.420102	512.481341	-159.248050	102.791860	954.775728	-463.360771	161.823386	891.015526	-465.500682	194.169326	908.544634	-461.495723	182.453473	804.875273	-454.074916	256.633224	696.897381	-437.022035	262.425107	688.597789	-314.592395	173.786131	543.283490	-454.476044	164.815864	459.812914	-433.439092	111.702684	387.499113	-425.397298	194.543561	451.416142	-409.307821	56.021720	275.016163	-401.088606	93.362218	284.494380	-312.912393	-14.316285	239.070314	-349.709546	290.392323	181.619376	-358.660088	198.504398	192.784830	-312.822011	165.755578	175.970451	-426.740880	-212.214192	945.696463	-230.803729	-7.393383	80.957348	-431.619013	-6.920460	80.791520	-31.283845	
